<?xml version="1.0" standalone="no"?>
<!DOCTYPE svg PUBLIC "-//W3C//DTD SVG 20010904//EN"
 "http://www.w3.org/TR/2001/REC-SVG-20010904/DTD/svg10.dtd">
<svg version="1.0" xmlns="http://www.w3.org/2000/svg"
 width="648.000000pt" height="648.000000pt" viewBox="0 0 648.000000 648.000000"
 preserveAspectRatio="xMidYMid meet">
<metadata>
Created by potrace 1.11, written by Peter Selinger 2001-2013
</metadata>
<g transform="translate(0.000000,648.000000) scale(0.100000,-0.100000)"
fill="#000000" stroke="none">
<path d="M1809 5806 c-2 -2 -22 -6 -45 -9 -54 -8 -176 -38 -189 -47 -5 -4 -27
-13 -47 -19 -144 -47 -368 -192 -497 -323 -164 -166 -257 -302 -336 -493 -9
-22 -18 -47 -20 -55 -2 -8 -24 -78 -50 -155 -86 -263 -179 -550 -181 -560 -1
-5 -14 -46 -29 -90 -15 -44 -28 -84 -29 -90 -2 -5 -6 -17 -9 -25 -6 -16 -151
-462 -152 -470 -1 -6 -136 -423 -170 -525 -12 -38 -26 -86 -29 -105 -3 -19 -9
-46 -12 -60 -13 -54 -11 -251 3 -312 36 -156 129 -281 266 -357 35 -19 123
-50 192 -68 17 -4 973 -9 2126 -10 l2096 -3 41 127 c23 71 65 198 92 283 28
85 73 223 100 305 27 83 51 157 55 166 5 14 -156 16 -1842 16 -1016 0 -1870 3
-1897 7 -217 30 -327 145 -329 341 0 81 22 202 53 297 12 35 23 71 25 81 2 9
15 50 28 90 26 74 170 518 172 527 22 109 130 304 235 426 82 95 258 195 370
210 8 1 31 5 50 9 19 4 880 7 1912 7 l1878 0 30 102 c17 55 37 117 45 136 15
38 33 96 40 126 2 10 20 66 40 124 20 58 38 114 40 125 3 11 23 74 45 140 22
65 40 123 40 127 0 8 -4103 12 -4111 4z"/>
<path d="M1886 4345 c-10 -17 -35 -87 -42 -120 -1 -5 -18 -59 -39 -120 -20
-60 -39 -117 -40 -125 -2 -8 -32 -98 -65 -200 -34 -102 -63 -189 -64 -195 -1
-5 -4 -14 -8 -20 -3 -5 -9 -25 -13 -42 l-7 -33 1811 -1 c996 -1 1814 -2 1819
-3 4 -1 29 -6 57 -10 116 -18 207 -75 253 -158 46 -82 50 -214 11 -373 -15
-62 -17 -70 -19 -70 -1 0 -3 -7 -5 -16 -3 -15 -184 -579 -231 -717 -26 -79
-84 -205 -96 -210 -5 -2 -8 -9 -8 -14 0 -25 -137 -190 -202 -243 -59 -48 -180
-102 -283 -126 -37 -9 -533 -13 -1895 -14 -1015 -1 -1848 -3 -1851 -4 -3 0
-11 -25 -19 -53 -7 -29 -19 -66 -26 -83 -12 -28 -105 -318 -140 -435 -8 -30
-20 -64 -24 -75 -8 -17 -20 -56 -60 -188 l-9 -27 2022 3 c1112 2 2033 6 2047
9 14 4 43 10 65 13 22 4 46 12 53 17 6 6 12 8 12 4 0 -3 24 4 53 15 28 12 58
22 65 23 7 1 18 8 24 14 7 7 18 12 25 12 25 0 222 116 283 166 191 159 337
335 418 505 43 90 115 302 344 1019 22 69 42 132 45 140 3 8 7 20 8 25 2 6 21
65 42 130 22 66 73 221 112 345 40 124 75 232 78 240 3 8 7 20 9 25 1 6 14 46
28 90 15 44 29 96 32 115 3 19 8 39 11 43 14 22 11 248 -4 313 -42 187 -175
333 -355 389 -53 17 -60 18 -133 31 -22 3 -948 7 -2058 8 -2008 1 -2018 1
-2031 -19z"/>
</g>
</svg>
