<svg width="0" height="0" class="hidden">

    <!-- Logo -->
    <symbol xmlns="http://www.w3.org/2000/svg" viewBox="0 0 80.653 64.017" id="logo">
        <path d="M7.91 47.063a9.522 9.522 0 0 1-3.94-.763 6.521 6.521 0 0 1-2.684-2.184 7.27 7.27 0 0 1-1.244-3.551A12.7 12.7 0 0 1 .71 35.6l7.62-23.532a15.919 15.919 0 0 1 2.65-4.994 19.817 19.817 0 0 1 3.93-3.844 17.813 17.813 0 0 1 4.486-2.4A13.015 13.015 0 0 1 23.721 0h50.008l-3.554 11.064H24.653a8.865 8.865 0 0 0-6.192 2.125 13.656 13.656 0 0 0-3.533 5.793l-2.7 8.384c-.949 2.844-1.071 4.91-.37 6.309.739 1.483 2.478 2.231 5.171 2.231h45.072l-3.637 11.157z" fill="currentColor" ></path>
        <path d="M8.594 64.015l3.465-10.783h44.51a8.7 8.7 0 0 0 6.07-2.083 13.352 13.352 0 0 0 3.457-5.671l2.642-8.2c.928-2.785 1.046-4.81.361-6.183-.727-1.453-2.436-2.193-5.074-2.193H19.973l3.546-10.877h49.425a9.357 9.357 0 0 1 3.839.743 6.38 6.38 0 0 1 2.617 2.13 7.115 7.115 0 0 1 1.214 3.461 12.466 12.466 0 0 1-.647 4.852L72.51 52.215a15.515 15.515 0 0 1-2.592 4.881 19.47 19.47 0 0 1-3.839 3.755 17.328 17.328 0 0 1-4.381 2.344 12.59 12.59 0 0 1-4.217.815H8.594z"></path>
    </symbol>

    <!-- Facebook -->
    <symbol xmlns="http://www.w3.org/2000/svg" viewBox="0 0 12.375 24" id='facebook'>
        <path id="Path_4" data-name="Path 4" d="M3.6,24V13.266H0V9H3.6V5.639C3.6,1.988,5.827,0,9.084,0a30.184,30.184,0,0,1,3.291.169V3.984H10.116C8.344,3.984,8,4.828,8,6.061V9h4l-.548,4.266H8V24" />
    </symbol>

    <!-- Instagram -->
    <symbol xmlns="http://www.w3.org/2000/svg" viewBox="0 0 24.007 24" id='instagram'>
        <path id="Path_6" data-name="Path 6" d="M11.931,37.672a6.153,6.153,0,1,0,6.154,6.153A6.144,6.144,0,0,0,11.931,37.672Zm0,10.154a4,4,0,1,1,4-4,4.008,4.008,0,0,1-4,4ZM19.772,37.42a1.435,1.435,0,1,1-1.435-1.435A1.432,1.432,0,0,1,19.772,37.42Zm4.076,1.457a7.1,7.1,0,0,0-1.939-5.029,7.15,7.15,0,0,0-5.029-1.939c-1.982-.112-7.921-.112-9.9,0a7.14,7.14,0,0,0-5.029,1.933A7.126,7.126,0,0,0,.009,38.871c-.112,1.981-.112,7.921,0,9.9A7.1,7.1,0,0,0,1.948,53.8a7.159,7.159,0,0,0,5.029,1.939c1.982.112,7.921.112,9.9,0A7.1,7.1,0,0,0,21.909,53.8a7.149,7.149,0,0,0,1.939-5.029C23.96,46.792,23.96,40.858,23.848,38.877ZM21.288,50.9a4.05,4.05,0,0,1-2.282,2.281c-1.58.627-5.329.482-7.075.482s-5.5.139-7.075-.482A4.05,4.05,0,0,1,2.575,50.9c-.627-1.58-.482-5.329-.482-7.074s-.139-5.5.482-7.074a4.05,4.05,0,0,1,2.282-2.281c1.58-.627,5.329-.482,7.075-.482s5.5-.139,7.075.482a4.05,4.05,0,0,1,2.282,2.281c.627,1.58.482,5.329.482,7.074S21.914,49.325,21.288,50.9Z" transform="translate(0.075 -31.825)" />
    </symbol>

    <!-- Twitter -->
    <symbol xmlns="http://www.w3.org/2000/svg" viewBox="0 0 29.65 24" id='twitter'>
        <path id="Path_8" data-name="Path 8" d="M26.6,54.063c.019.262.019.525.019.788,0,8.006-6.114,17.231-17.29,17.231A17.215,17.215,0,0,1,0,69.363a12.612,12.612,0,0,0,1.467.075,12.2,12.2,0,0,0,7.544-2.587,6.085,6.085,0,0,1-5.682-4.2,7.689,7.689,0,0,0,1.148.094,6.447,6.447,0,0,0,1.6-.206A6.062,6.062,0,0,1,1.2,56.595V56.52a6.136,6.136,0,0,0,2.747.769,6.052,6.052,0,0,1-1.881-8.1A17.292,17.292,0,0,0,14.6,55.526a6.815,6.815,0,0,1-.151-1.387,6.087,6.087,0,0,1,10.517-4.144,11.989,11.989,0,0,0,3.857-1.462,6.044,6.044,0,0,1-2.672,3.337,12.215,12.215,0,0,0,3.5-.937A13.039,13.039,0,0,1,26.6,54.063Z" transform="translate(0 -48.082)" />
    </symbol>

    <!-- Linkedin -->
    <symbol xmlns="http://www.w3.org/2000/svg" viewBox="0 0 24 24" id='linkedin'>
        <path id="linkedin" d="M10674-1871v-17.334h5.332V-1871Zm18.666,0v-9.148c0-2.124-.809-3.747-2.667-3.747a2.793,2.793,0,0,0-2.5,2.093,3.661,3.661,0,0,0-.17,1.285V-1871H10682v-11.407c0-2.059-.069-3.781-.137-5.269h4.793l.236,2.3h.1a5.932,5.932,0,0,1,5.1-2.668c3.375,0,5.909,2.261,5.909,7.123V-1871ZM10674-1892.265a2.625,2.625,0,0,1,2.666-2.735,2.586,2.586,0,0,1,2.666,2.666,2.527,2.527,0,0,1-2.669,2.635A2.525,2.525,0,0,1,10674-1892.265Z" transform="translate(-10674.002 1895)" />
    </symbol>

    <!-- Behance -->
    <symbol xmlns="http://www.w3.org/2000/svg" viewBox="0 0 36.36 24" id='behance'>
        <path id="behance" d="M14.678,16.17s3.44-.267,3.44-4.471S15.3,5.442,11.735,5.442H0v23.5H11.735s7.167.234,7.167-6.939c0,0,.311-5.837-4.224-5.837ZM5.171,9.616h6.564s1.6,0,1.6,2.443-.939,2.8-2,2.8H5.171V9.616ZM11.4,24.767H5.172V18.484h6.564s2.379-.033,2.379,3.228C14.115,24.461,12.339,24.746,11.4,24.767ZM28.455,11.419c-8.676,0-8.668,9.032-8.668,9.032s-.593,8.985,8.668,8.985c0,0,7.716.461,7.716-6.249H32.2s.131,2.53-3.615,2.53a3.718,3.718,0,0,1-3.971-4.091H36.3s1.289-10.2-7.841-10.2Zm3.53,7.065H24.577s.484-3.622,3.967-3.622S31.985,18.484,31.985,18.484Zm.922-11.663H23.6v2.9h9.3Z" transform="translate(0 -5.442)" />
    </symbol>

    <!-- Dribbble -->
    <symbol xmlns="http://www.w3.org/2000/svg" viewBox="0 0 24 24" id='dribbble'>
        <path id="Path_9" data-name="Path 9" d="M20,8A12,12,0,1,0,32,20,12.014,12.014,0,0,0,20,8Zm8,6a8.908,8.908,0,0,1,2,6,29.221,29.221,0,0,0-7,0c-.278-.679-.64-1.264-1-2A16.021,16.021,0,0,0,28,14Zm-1-2a15.273,15.273,0,0,1-6,4c-1.68-3.086-2.717-5.621-3-6A9.7,9.7,0,0,1,27,12ZM16,11c.27.371,1.3,2.981,3,6a30,30,0,0,1-9,1A10.435,10.435,0,0,1,16,11Zm-6,9c0-.1,0,.1,0,0a50.877,50.877,0,0,0,10-2c.293.574.743,1.418,1,2a16.675,16.675,0,0,0-9,7C10.363,25.183,10,22.633,10,20Zm4,8c1.071-2.189,3.868-4.59,8-6a34.872,34.872,0,0,1,2,7A9.617,9.617,0,0,1,14,28Zm12,1a45.377,45.377,0,0,0-2-8,10.327,10.327,0,0,1,6,1A10.075,10.075,0,0,1,26,29Z" transform="translate(-8 -8)" />
    </symbol>

    <!-- Github -->
    <symbol xmlns="http://www.w3.org/2000/svg" viewBox="0 0 24.57 24" id='github'>
        <path id="Path_10" data-name="Path 10" d="M8.218,27.325c0,.1-.114.179-.258.179-.163.015-.277-.065-.277-.179s.114-.179.258-.179S8.218,27.211,8.218,27.325ZM6.677,27.1c-.035.1.064.213.213.243a.232.232,0,0,0,.307-.1c.03-.1-.064-.213-.213-.258a.254.254,0,0,0-.307.114Zm2.19-.084c-.144.035-.243.129-.228.243s.144.164.292.129.243-.129.228-.228S9.011,27,8.867,27.017ZM12.126,8A11.889,11.889,0,0,0,0,20.109,12.44,12.44,0,0,0,8.4,31.98c.634.114.857-.278.857-.6s-.015-2-.015-3.047c0,0-3.468.744-4.2-1.479,0,0-.565-1.444-1.377-1.816,0,0-1.134-.779.079-.764a2.614,2.614,0,0,1,1.912,1.28A2.616,2.616,0,0,0,9.268,26.59a2.76,2.76,0,0,1,.793-1.672C7.292,24.61,4.5,24.208,4.5,19.434a3.765,3.765,0,0,1,1.169-2.923,4.7,4.7,0,0,1,.129-3.37c1.035-.323,3.418,1.34,3.418,1.34a11.682,11.682,0,0,1,6.222,0s2.383-1.667,3.418-1.34a4.7,4.7,0,0,1,.129,3.37,3.861,3.861,0,0,1,1.278,2.923c0,4.789-2.918,5.171-5.687,5.484a2.938,2.938,0,0,1,.842,2.3c0,1.672-.015,3.742-.015,4.149,0,.323.228.715.857.6A12.326,12.326,0,0,0,24.57,20.109,12.157,12.157,0,0,0,12.126,8ZM4.815,25.116c-.064.05-.05.164.035.258s.193.114.258.05.05-.164-.035-.258S4.879,25.052,4.815,25.116Zm-.535-.4c-.035.065.015.144.114.194a.147.147,0,0,0,.213-.035c.035-.065-.015-.144-.114-.194C4.394,24.65,4.315,24.665,4.28,24.714Zm1.6,1.767c-.079.065-.05.213.064.308.114.114.258.129.322.05s.035-.213-.064-.308C6.1,26.417,5.949,26.4,5.885,26.481Zm-.565-.73c-.079.05-.079.179,0,.293s.213.164.277.114a.227.227,0,0,0,0-.308c-.069-.114-.2-.164-.277-.1Z" transform="translate(0 -8)" />
    </symbol>

    <!-- Mail -->
    <symbol xmlns="http://www.w3.org/2000/svg" viewBox="0 0 32 24" id='mail'>
        <path id="Path_16" data-name="Path 16" d="M29,64H3a3,3,0,0,0-3,3V85a3,3,0,0,0,3,3H29a3,3,0,0,0,3-3V67A3,3,0,0,0,29,64Zm0,3v2.55c-1.4,1.141-3.635,2.916-8.412,6.656C19.536,77.034,17.451,79.023,16,79c-1.45.023-3.536-1.966-4.588-2.794C6.636,72.467,4.4,70.692,3,69.55V67ZM3,85V73.4c1.432,1.141,3.463,2.741,6.559,5.165C10.925,79.641,13.317,82.014,16,82c2.67.014,5.032-2.325,6.441-3.434,3.1-2.424,5.127-4.025,6.559-5.166V85Z" transform="translate(0 -64)" />
    </symbol>

    <!-- UI Design -->
    <symbol xmlns="http://www.w3.org/2000/svg" viewBox="0 0 42.667 32" id='ui-design'>
        <path id="mbri-website-theme" d="M18.667,8.693A1.333,1.333,0,1,1,17.333,7.36,1.332,1.332,0,0,1,18.667,8.693Zm-5.333,0A1.333,1.333,0,1,1,12,7.36,1.332,1.332,0,0,1,13.333,8.693ZM8,8.693A1.333,1.333,0,1,1,6.667,7.36,1.332,1.332,0,0,1,8,8.693ZM4,2A4.022,4.022,0,0,0,0,6V30a4.022,4.022,0,0,0,4,4H38.667a4.022,4.022,0,0,0,4-4V14A1.333,1.333,0,0,0,40,14V30a1.3,1.3,0,0,1-1.333,1.333H4A1.3,1.3,0,0,1,2.667,30V6A1.3,1.3,0,0,1,4,4.667H28A1.333,1.333,0,0,0,28,2Zm36.712.152A69.41,69.41,0,0,0,25.944,12.267c-2.5,2.277-2.416,5.672-.747,7.3,1.467,1.427,4.64,1.805,7.133-.912A69.491,69.491,0,0,0,42.536,3.976c.523-.976-.645-2.453-1.827-1.821ZM37.477,7.211a50.479,50.479,0,0,1-6.971,9.533c-1.805,1.947-3.413,1.075-3.483.992-.757-.888-.3-2.541.827-3.648a42.308,42.308,0,0,1,9.627-6.88ZM20.587,20.667c-2.419,0-3.413,1.867-3.413,4.035a1.809,1.809,0,0,1-.6,1.5,1.373,1.373,0,0,0,.6,2.467c4,0,6.829-.528,6.829-4C23.979,22.107,23,20.667,20.587,20.667Zm0,2.667c.448,0,.747.427.747,1.333,0,1.208-.96,1.333-1.773,1.333A2.281,2.281,0,0,0,20,24.667C20,23.744,20.133,23.333,20.587,23.333ZM6.667,12.667H20a1.334,1.334,0,0,1,0,2.667H6.667A1.333,1.333,0,0,1,6.667,12.667Z" transform="translate(0 -2)" />
    </symbol>

    <!-- Responsive Design -->
    <symbol xmlns="http://www.w3.org/2000/svg" viewBox="0 0 34.133 32" id='responsive-design'>
        <path id="mbri-responsive" d="M27.733,26.667A1.067,1.067,0,1,1,26.667,25.6,1.067,1.067,0,0,1,27.733,26.667ZM23.467,6.4A4.279,4.279,0,0,0,19.2,10.667V27.733A4.279,4.279,0,0,0,23.467,32h6.4a4.279,4.279,0,0,0,4.267-4.267V10.667A4.279,4.279,0,0,0,29.867,6.4Zm0,2.133h6.4A2.1,2.1,0,0,1,32,10.667V27.733a2.1,2.1,0,0,1-2.133,2.133h-6.4a2.1,2.1,0,0,1-2.133-2.133V10.667A2.1,2.1,0,0,1,23.467,8.533ZM5.333,17.067H16A1.067,1.067,0,0,1,16,19.2H5.333A1.067,1.067,0,0,1,5.333,17.067ZM3.2,0A3.218,3.218,0,0,0,0,3.2V22.4a3.218,3.218,0,0,0,3.2,3.2h9.6v4.267H9.6A1.067,1.067,0,0,0,9.6,32H16a1.067,1.067,0,0,0,0-2.133H14.933V25.6H16a1.067,1.067,0,0,0,0-2.133H3.2A1.041,1.041,0,0,1,2.133,22.4V3.2A1.041,1.041,0,0,1,3.2,2.133H30.933A1.041,1.041,0,0,1,32,3.2a1.067,1.067,0,0,0,2.133,0,3.218,3.218,0,0,0-3.2-3.2Z"/>
    </symbol>
  
    <!-- Web Development -->
    <symbol xmlns="http://www.w3.org/2000/svg" viewBox="0 0 43.242 32" id="web-development">
        <g id="code-slash" transform="translate(-11.013 -74.403)">
            <path id="Path_27" data-name="Path 27" d="M24.1,146.516a1.831,1.831,0,0,1-1.214-.46l-11.245-9.9a1.864,1.864,0,0,1,0-2.793l11.245-9.9a1.837,1.837,0,0,1,2.6.175,1.864,1.864,0,0,1-.174,2.62l-9.66,8.5,9.659,8.5a1.858,1.858,0,0,1-1.215,3.254Z" transform="translate(0 -44.33)"/>
            <path id="Path_28" data-name="Path 28" d="M332.828,146.516a1.845,1.845,0,0,1-1.729-1.2,1.864,1.864,0,0,1,.513-2.051l9.66-8.5-9.659-8.5a1.864,1.864,0,0,1-.174-2.62,1.837,1.837,0,0,1,2.6-.175l11.245,9.9a1.864,1.864,0,0,1,0,2.793l-11.245,9.9A1.829,1.829,0,0,1,332.828,146.516Z" transform="translate(-291.662 -44.33)"/>
            <path id="Path_29" data-name="Path 29" d="M188.849,106.4a1.852,1.852,0,0,1-1.768-2.383l8.434-28.241a1.846,1.846,0,1,1,3.534,1.059l-8.434,28.241A1.846,1.846,0,0,1,188.849,106.4Z" transform="translate(-160.432 0)"/>
        </g>
    </symbol>

    <!-- SEO & Social Media -->
    <symbol xmlns="http://www.w3.org/2000/svg" viewBox="0 0 27.878 32" id='seo-social-media'>
        <path id="Link" d="M197.885,1442.489l-3.481-3.445a1.24,1.24,0,0,0-1.753,0,1.213,1.213,0,0,0,0,1.731l3.481,3.453a4.25,4.25,0,0,1,0,6.054,4.354,4.354,0,0,1-6.117,0l-6.562-6.5a4.256,4.256,0,0,1,0-6.054,4.315,4.315,0,0,1,2.394-1.206,1.223,1.223,0,0,0,1.036-1.395,1.244,1.244,0,0,0-1.413-1.034,6.808,6.808,0,0,0-3.769,1.895,6.7,6.7,0,0,0,0,9.532l6.562,6.489a6.844,6.844,0,0,0,9.623,0,6.685,6.685,0,0,0,0-9.524Zm-22.138-10.73a4.248,4.248,0,0,1,0-6.054,4.354,4.354,0,0,1,6.117,0l6.562,6.489a4.274,4.274,0,0,1-2.394,7.26,1.231,1.231,0,0,0,.187,2.445,1.506,1.506,0,0,0,.19-.016,6.818,6.818,0,0,0,3.769-1.895,6.695,6.695,0,0,0,0-9.524l-6.562-6.5a6.844,6.844,0,0,0-9.623,0,6.694,6.694,0,0,0,0,9.532l3.481,3.445a1.255,1.255,0,0,0,1.753,0,1.221,1.221,0,0,0,0-1.739Z" transform="translate(-172 -1421.99)" />
    </symbol>

    <!-- WordPress Development -->
    <symbol xmlns="http://www.w3.org/2000/svg" viewBox="0 0 32 32" id='wordpress-development'>
        <path id="wordpress-simple" d="M19,3A16,16,0,1,0,35,19,16.012,16.012,0,0,0,19,3Zm0,2.668a13.272,13.272,0,0,1,8.993,3.493c-.051,0-.1-.014-.166-.014a2.249,2.249,0,0,0-2.159,2.373,6.082,6.082,0,0,0,1.238,3.135A7,7,0,0,1,28,18.32a15.777,15.777,0,0,1-1.014,4.32l-1.317,4.44-5-15.418c.8-.041,1.519-.12,1.519-.12a.554.554,0,0,0-.079-1.106s-2.16.173-3.56.173c-1.306,0-3.507-.173-3.507-.173a.554.554,0,0,0-.079,1.106s.679.08,1.4.12L18.6,18.44l-2.909,8.748L10.649,11.664c.814-.041,1.534-.12,1.534-.12a.555.555,0,0,0-.079-1.106s-2.07.164-3.471.171A13.287,13.287,0,0,1,19,5.668ZM30.707,12.6a13.35,13.35,0,0,1-5.848,18.37c.287-.142.573-.284.848-.452l4.067-11.772a12.538,12.538,0,0,0,1.012-4.774,11.164,11.164,0,0,0-.077-1.361S30.708,12.6,30.707,12.6ZM6.942,13.32l6.231,17.668A13.32,13.32,0,0,1,6.942,13.32Zm12.284,6.841L23.334,31.4a.73.73,0,0,0,.091.171,13.275,13.275,0,0,1-8.2.216Zm-5.892,10.9c.346.159.7.3,1.05.438Q13.848,31.305,13.334,31.065Zm11.1.111c-.281.125-.569.235-.861.341C23.867,31.415,24.154,31.3,24.435,31.176Zm-9.668.466c.143.047.284.094.43.137C15.052,31.736,14.91,31.689,14.767,31.642Z" transform="translate(-3 -3)"/>
    </symbol>

     <!-- Maintenance -->
    <symbol xmlns="http://www.w3.org/2000/svg" viewBox="0 0 30.815 32" id='maintenance'>
        <path id="user-cog-solid" d="M17.852,5a8.311,8.311,0,0,0-4.657,15.185A11.891,11.891,0,0,0,6,31.074H8.37a9.509,9.509,0,0,1,9.481-9.481A8.3,8.3,0,1,0,17.852,5Zm0,2.37A5.926,5.926,0,1,1,11.926,13.3,5.868,5.868,0,0,1,17.852,7.37Zm9.6,13.037V22.9a6.035,6.035,0,0,0-2.014.831L23.66,21.949,22,23.606l1.778,1.778a4.262,4.262,0,0,0-.829,2.134H20.222v2.37h2.488a7.952,7.952,0,0,0,.831,2.134L21.764,33.8l1.657,1.657L25.2,33.681a6.047,6.047,0,0,0,2.016.831V37h2.37V34.512a6.035,6.035,0,0,0,2.014-.831l1.778,1.778,1.66-1.657-1.778-1.778a4.262,4.262,0,0,0,.829-2.134h2.727v-2.37H34.326a7.952,7.952,0,0,0-.831-2.134l1.778-1.778-1.657-1.657-1.778,1.778a6.047,6.047,0,0,0-2.016-.831V20.407Zm1.067,4.741A3.556,3.556,0,1,1,24.963,28.7,3.492,3.492,0,0,1,28.519,25.148Zm0,2.37a1.035,1.035,0,0,0-.435.1,1.377,1.377,0,0,0-.648.648,1.035,1.035,0,0,0-.1.435,1.284,1.284,0,0,0,.75,1.083,1.033,1.033,0,0,0,.435.1,1.185,1.185,0,1,0,0-2.37Z" transform="translate(-6 -5)"/>
    </symbol>

</svg>